<svg width="17" height="17" viewBox="0 0 17 17" fill="none" xmlns="http://www.w3.org/2000/svg">
<path d="M14.5 8.56738C14.5 8.69999 14.4473 8.82717 14.3536 8.92094C14.2598 9.0147 14.1326 9.06738 14 9.06738H9V14.0674C9 14.2 8.94732 14.3272 8.85355 14.4209C8.75979 14.5147 8.63261 14.5674 8.5 14.5674C8.36739 14.5674 8.24021 14.5147 8.14645 14.4209C8.05268 14.3272 8 14.2 8 14.0674V9.06738H3C2.86739 9.06738 2.74021 9.0147 2.64645 8.92094C2.55268 8.82717 2.5 8.69999 2.5 8.56738C2.5 8.43477 2.55268 8.3076 2.64645 8.21383C2.74021 8.12006 2.86739 8.06738 3 8.06738H8V3.06738C8 2.93477 8.05268 2.8076 8.14645 2.71383C8.24021 2.62006 8.36739 2.56738 8.5 2.56738C8.63261 2.56738 8.75979 2.62006 8.85355 2.71383C8.94732 2.8076 9 2.93477 9 3.06738V8.06738H14C14.1326 8.06738 14.2598 8.12006 14.3536 8.21383C14.4473 8.3076 14.5 8.43477 14.5 8.56738Z" fill="white"/>
</svg>
