<svg width="19" height="17" viewBox="0 0 19 17" fill="none" xmlns="http://www.w3.org/2000/svg">
<path fill-rule="evenodd" clip-rule="evenodd" d="M9.81346 9.72123C9.25596 9.72123 8.70012 9.53706 8.23512 9.16873L4.49762 6.1554C4.22846 5.93873 4.18679 5.54456 4.40262 5.27623C4.62012 5.00873 5.01346 4.96623 5.28179 5.18206L9.01596 8.19206C9.48512 8.56373 10.146 8.56373 10.6185 8.18873L14.3151 5.18373C14.5835 4.96456 14.9768 5.00623 15.1951 5.27456C15.4126 5.54206 15.3718 5.9354 15.1043 6.15373L11.401 9.16373C10.9326 9.5354 10.3726 9.72123 9.81346 9.72123Z" fill="#212121"/>
<mask id="mask0_44_17411" style="mask-type:luminance" maskUnits="userSpaceOnUse" x="0" y="0" width="19" height="17">
<path fill-rule="evenodd" clip-rule="evenodd" d="M0.833008 0.166992H18.7496V16.417H0.833008V0.166992Z" fill="white"/>
</mask>
<g mask="url(#mask0_44_17411)">
<path fill-rule="evenodd" clip-rule="evenodd" d="M5.69884 15.167H13.8822C13.8838 15.1653 13.8905 15.167 13.8955 15.167C14.8463 15.167 15.6897 14.827 16.3363 14.1812C17.0872 13.4337 17.4997 12.3595 17.4997 11.157V5.43366C17.4997 3.10616 15.978 1.41699 13.8822 1.41699H5.70051C3.60467 1.41699 2.08301 3.10616 2.08301 5.43366V11.157C2.08301 12.3595 2.49634 13.4337 3.24634 14.1812C3.89301 14.827 4.73717 15.167 5.68717 15.167H5.69884ZM5.68467 16.417C4.39884 16.417 3.25051 15.9503 2.36384 15.067C1.37634 14.082 0.833008 12.6937 0.833008 11.157V5.43366C0.833008 2.43116 2.92551 0.166992 5.70051 0.166992H13.8822C16.6572 0.166992 18.7497 2.43116 18.7497 5.43366V11.157C18.7497 12.6937 18.2063 14.082 17.2188 15.067C16.333 15.9495 15.1838 16.417 13.8955 16.417H13.8822H5.70051H5.68467Z" fill="#212121"/>
</g>
</svg>
