<svg width="25" height="25" viewBox="0 0 25 25" fill="none" xmlns="http://www.w3.org/2000/svg">
<path fill-rule="evenodd" clip-rule="evenodd" d="M22.833 7.58261L21.026 6.72461L20.597 7.62761C19.26 10.4416 17.186 12.4076 14.796 13.2296L14.595 13.2876C13.838 13.5256 13.054 13.6606 12.25 13.6606C8.81797 13.6596 5.69797 11.4046 3.90397 7.62761L3.47497 6.72461L1.66797 7.58261L2.09697 8.48561C2.69797 9.74961 3.43397 10.8646 4.26997 11.8226L2.05697 14.0376L3.47097 15.4506L5.69697 13.2236C6.59597 13.9676 7.57697 14.5506 8.61497 14.9606L7.75397 17.9236L9.67497 18.4816L10.539 15.5066C11.099 15.6056 11.669 15.6606 12.249 15.6606H12.252C12.806 15.6606 13.351 15.6116 13.886 15.5216L14.746 18.4816L16.666 17.9236L15.814 14.9876C16.862 14.5826 17.854 14.0046 18.762 13.2606L20.951 15.4506L22.366 14.0376L20.194 11.8646C21.046 10.8976 21.794 9.76861 22.404 8.48561L22.833 7.58261Z" fill="#212121"/>
</svg>
