<svg width="41" height="40" viewBox="0 0 41 40" fill="none" xmlns="http://www.w3.org/2000/svg">
<path d="M4.25 28.75H36.75C37.0815 28.75 37.3995 28.6183 37.6339 28.3839C37.8683 28.1495 38 27.8315 38 27.5C38 27.1685 37.8683 26.8505 37.6339 26.6161C37.3995 26.3817 37.0815 26.25 36.75 26.25H35.5V23.75C35.4954 19.9896 34.0804 16.3676 31.5344 13.6001C28.9885 10.8326 25.497 9.1208 21.75 8.80313V6.25H24.25C24.5815 6.25 24.8995 6.1183 25.1339 5.88388C25.3683 5.64946 25.5 5.33152 25.5 5C25.5 4.66848 25.3683 4.35054 25.1339 4.11612C24.8995 3.8817 24.5815 3.75 24.25 3.75H16.75C16.4185 3.75 16.1005 3.8817 15.8661 4.11612C15.6317 4.35054 15.5 4.66848 15.5 5C15.5 5.33152 15.6317 5.64946 15.8661 5.88388C16.1005 6.1183 16.4185 6.25 16.75 6.25H19.25V8.80313C15.503 9.1208 12.0115 10.8326 9.46556 13.6001C6.91964 16.3676 5.50455 19.9896 5.5 23.75V26.25H4.25C3.91848 26.25 3.60054 26.3817 3.36612 26.6161C3.1317 26.8505 3 27.1685 3 27.5C3 27.8315 3.1317 28.1495 3.36612 28.3839C3.60054 28.6183 3.91848 28.75 4.25 28.75ZM8 23.75C8 20.4348 9.31696 17.2554 11.6612 14.9112C14.0054 12.567 17.1848 11.25 20.5 11.25C23.8152 11.25 26.9946 12.567 29.3388 14.9112C31.683 17.2554 33 20.4348 33 23.75V26.25H8V23.75ZM38 32.5C38 32.8315 37.8683 33.1495 37.6339 33.3839C37.3995 33.6183 37.0815 33.75 36.75 33.75H4.25C3.91848 33.75 3.60054 33.6183 3.36612 33.3839C3.1317 33.1495 3 32.8315 3 32.5C3 32.1685 3.1317 31.8505 3.36612 31.6161C3.60054 31.3817 3.91848 31.25 4.25 31.25H36.75C37.0815 31.25 37.3995 31.3817 37.6339 31.6161C37.8683 31.8505 38 32.1685 38 32.5Z" fill="#405FF2"/>
</svg>
