<svg width="382" height="160" viewBox="0 0 382 160" fill="none" xmlns="http://www.w3.org/2000/svg">
<g clip-path="url(#clip0_7946_59743)">
<path d="M0 16C0 8.45753 0 4.68629 2.34315 2.34315C4.68629 0 8.45753 0 16 0H366C373.542 0 377.314 0 379.657 2.34315C382 4.68629 382 8.45753 382 16V144C382 151.542 382 155.314 379.657 157.657C377.314 160 373.542 160 366 160H16C8.45753 160 4.68629 160 2.34315 157.657C0 155.314 0 151.542 0 144V16Z" fill="#405FF2"/>
<g opacity="0.28">
<path opacity="0.1" d="M219.285 154.294L253.887 174.89V209.713L219.285 188.931V154.294Z" fill="white"/>
<path opacity="0.2" d="M288.367 154.315L253.767 174.889V209.676L288.367 188.916V154.315Z" fill="white"/>
<path opacity="0.3" d="M219.285 154.409L253.887 133.626L288.488 154.409V154.564L253.887 175.346L219.285 154.564V154.409Z" fill="white"/>
<path opacity="0.1" d="M-9 47.9482L73.9861 97.3434V180.862L-9 131.019V47.9482Z" fill="white"/>
<path opacity="0.2" d="M156.682 47.9985L73.6979 97.3419V180.773L156.682 130.982V47.9985Z" fill="white"/>
<path opacity="0.3" d="M-9 48.2219L73.9861 -1.62061L156.972 48.2219V48.5947L73.9861 98.4372L-9 48.5947V48.2219Z" fill="white"/>
<path opacity="0.1" d="M225.027 0.568848L308.013 49.964V133.482L225.027 83.6397V0.568848Z" fill="white"/>
<path opacity="0.2" d="M390.709 0.619141L307.725 49.9625V133.393L390.709 83.6029V0.619141Z" fill="white"/>
<path opacity="0.3" d="M225.027 0.842522L308.013 -49L391 0.842522V1.21531L308.013 51.0578L225.027 1.21531V0.842522Z" fill="white"/>
<path opacity="0.1" d="M190.281 21.3452L224.883 41.9408V76.7641L190.281 55.982V21.3452Z" fill="white"/>
<path opacity="0.2" d="M259.363 21.3662L224.763 41.9402V76.727L259.363 55.9667V21.3662Z" fill="white"/>
<path opacity="0.3" d="M190.281 21.4593L224.883 0.677246L259.484 21.4593V21.6148L224.883 42.3969L190.281 21.6148V21.4593Z" fill="white"/>
</g>
</g>
<defs>
<clipPath id="clip0_7946_59743">
<path d="M0 16C0 8.45753 0 4.68629 2.34315 2.34315C4.68629 0 8.45753 0 16 0H366C373.542 0 377.314 0 379.657 2.34315C382 4.68629 382 8.45753 382 16V144C382 151.542 382 155.314 379.657 157.657C377.314 160 373.542 160 366 160H16C8.45753 160 4.68629 160 2.34315 157.657C0 155.314 0 151.542 0 144V16Z" fill="white"/>
</clipPath>
</defs>
</svg>
